# xmcd CD database file
#
# Track frame offsets:
#	150
#	18440
#	41235
#	56155
#	89242
#	105507
#	125055
#	150990
#	164317
#	184920
#	208677
#	232960
#
# Disc length: 3314 seconds
#
# Revision: 0
# Processed by: cddbd v1.5.2PL0 Copyright (c) Steve Scherf et al.
# Submitted via: CDex 1.51
#
DISCID=a40cf00c
DTITLE=Kurt Elling - This Time It´s Love
DYEAR=1998
DGENRE=Jazz
TTITLE0=My Foolish Heart
TTITLE1=Too Young To Go steady
TTITLE2=I Feel So Smooche
TTITLE3=Freddie´s Yen For Jen
TTITLE4=My Love, Effendi
TTITLE5=Where I Belong
TTITLE6=The Very Thought Of You
TTITLE7=The Best Things Happen While You´re Dancing
TTITLE8=Rosa Morena
TTITLE9=She´s Funny That Way
TTITLE10=A Time For Love
TTITLE11=Every Time We Say Goodbye
EXTD=YEAR: 1998
EXTT0=
EXTT1=
EXTT2=
EXTT3=
EXTT4=
EXTT5=
EXTT6=
EXTT7=
EXTT8=
EXTT9=
EXTT10=
EXTT11=
PLAYORDER=
